<?xml version="1.0" standalone="no"?>
<!DOCTYPE svg PUBLIC "-//W3C//DTD SVG 20010904//EN"
 "http://www.w3.org/TR/2001/REC-SVG-20010904/DTD/svg10.dtd">
<svg version="1.0" xmlns="http://www.w3.org/2000/svg"
 width="1284.000000pt" height="1605.000000pt" viewBox="0 0 1284.000000 1605.000000"
 preserveAspectRatio="xMidYMid meet">

<g transform="translate(0.000000,1605.000000) scale(0.100000,-0.100000)"
fill="#000000" stroke="none">
<path d="M6240 16039 c-401 -24 -823 -99 -1215 -214 -2056 -607 -3576 -2378
-3859 -4498 -36 -264 -47 -443 -47 -737 0 -295 11 -473 47 -739 153 -1145 675
-2220 1483 -3053 l123 -128 3803 0 3803 0 117 122 c245 256 425 481 620 773
504 755 788 1549 892 2485 22 206 26 832 5 1030 -48 462 -127 837 -262 1240
-544 1631 -1832 2915 -3464 3454 -651 215 -1356 306 -2046 265z m820 -1115
c1496 -256 2788 -1232 3451 -2609 721 -1499 597 -3283 -324 -4665 -146 -218
-326 -445 -491 -617 l-88 -93 -1501 0 -1500 0 6 143 c7 175 41 336 87 407 70
109 96 271 70 448 -11 77 -9 106 10 257 53 415 154 842 246 1032 24 50 44 96
44 101 0 5 33 29 73 53 139 82 219 153 259 229 25 48 69 83 127 101 22 7 127
13 266 15 350 4 493 19 720 73 216 53 402 134 549 239 100 73 326 313 389 414
138 222 217 557 217 929 l0 106 49 70 c100 142 221 252 344 315 l58 29 57 -28
c75 -37 173 -43 218 -15 46 29 75 97 81 191 5 73 3 84 -25 145 -75 159 -245
265 -428 266 -94 0 -225 -29 -303 -66 -128 -62 -246 -57 -343 16 -71 54 -157
64 -226 26 -20 -11 -37 -10 -100 6 -87 21 -146 18 -174 -9 -17 -17 -19 -40
-22 -253 -3 -159 -9 -258 -19 -305 -14 -66 -27 -250 -46 -665 -11 -224 -21
-260 -101 -341 -117 -118 -276 -127 -612 -36 -244 67 -327 116 -420 245 -244
342 -520 600 -773 722 -147 71 -197 80 -505 91 -367 12 -525 41 -705 129 -95
47 -150 91 -232 185 -191 221 -376 348 -550 378 -86 15 -233 -4 -322 -41 -191
-81 -417 -286 -667 -609 -108 -139 -170 -199 -258 -248 -128 -71 -260 -82
-374 -30 -73 34 -124 40 -198 25 -117 -24 -184 -69 -364 -248 -195 -194 -396
-383 -509 -477 -68 -58 -84 -76 -102 -124 -101 -267 -117 -612 -48 -1036 22
-142 25 -352 5 -437 -13 -56 -12 -58 19 -130 17 -40 47 -102 65 -138 l32 -64
28 31 c46 52 57 125 37 247 -20 117 -22 277 -5 412 9 72 8 124 -1 222 -13 138
-36 289 -51 326 -7 18 -5 28 9 40 54 49 79 -25 106 -314 30 -324 62 -526 109
-689 57 -194 81 -418 80 -726 0 -197 -5 -286 -23 -420 -31 -239 -52 -322 -113
-454 l-30 -63 -26 38 c-14 22 -64 102 -110 179 -530 889 -750 1937 -626 2980
8 72 18 140 22 152 4 14 970 752 2612 1998 l2605 1975 60 -5 c33 -4 125 -17
205 -31z m-3331 -5238 c17 -9 40 -34 51 -55 45 -89 333 -262 560 -335 415
-134 1012 -157 1415 -54 42 11 64 11 145 -3 52 -10 130 -20 173 -24 63 -6 77
-10 77 -24 0 -30 -50 -419 -76 -596 -52 -346 -110 -591 -174 -733 -21 -48 -43
-107 -49 -132 -17 -73 -13 -189 9 -273 19 -72 19 -82 6 -147 -16 -73 -69 -216
-117 -312 l-29 -58 -1133 1 c-622 1 -1172 4 -1222 8 l-89 6 -47 105 c-93 206
-112 276 -119 445 -6 143 -7 153 -38 213 -26 51 -32 74 -32 125 0 126 36 465
96 912 5 33 30 95 77 184 95 181 128 277 115 334 -14 64 -11 190 6 250 24 81
65 132 124 151 115 38 211 43 271 12z m2688 -1491 c-2 -49 -14 -155 -27 -235
-15 -100 -22 -193 -23 -300 -1 -138 2 -164 23 -235 22 -72 25 -96 23 -235 0
-85 -5 -175 -10 -200 l-9 -45 -212 -3 c-116 -1 -212 -1 -212 2 0 29 158 372
193 418 78 104 115 230 127 438 11 196 42 352 99 490 26 64 26 64 29 30 2 -19
2 -75 -1 -125z m-3475 -1072 c21 -24 85 -115 112 -160 5 -10 -3 -13 -32 -13
-38 0 -40 2 -85 76 -45 73 -55 103 -40 117 11 12 18 8 45 -20z"/>
<path d="M3552 5768 c-5 -7 -39 -85 -75 -173 -36 -88 -77 -187 -91 -220 -15
-33 -39 -89 -53 -125 -14 -36 -36 -89 -49 -118 -13 -29 -24 -55 -24 -58 0 -7
-55 -135 -77 -179 -8 -16 -34 -77 -58 -135 -45 -109 -290 -662 -317 -715 -9
-16 -19 -40 -22 -53 l-7 -22 212 2 213 3 47 120 c27 66 63 160 81 209 l33 89
329 -6 c180 -3 330 -7 332 -10 2 -2 24 -64 49 -138 25 -74 57 -164 71 -201
l26 -68 254 0 c220 0 254 2 254 15 0 8 -25 72 -56 143 -69 156 -170 396 -235
560 -27 67 -53 130 -59 140 -8 14 -79 198 -229 592 -18 47 -54 146 -80 220
l-48 135 -205 3 c-156 2 -208 -1 -216 -10z m270 -763 c54 -159 98 -293 98
-297 0 -5 -102 -8 -226 -8 -183 0 -224 2 -216 13 10 12 39 88 173 455 54 150
60 163 67 142 3 -8 50 -145 104 -305z"/>
<path d="M10064 5743 c-9 -21 -27 -63 -41 -93 -13 -30 -37 -89 -53 -130 -15
-41 -42 -105 -59 -143 -17 -37 -31 -70 -31 -73 0 -2 -23 -57 -51 -122 -28 -64
-66 -153 -84 -197 -27 -67 -61 -146 -155 -360 -5 -11 -38 -85 -73 -165 -137
-307 -207 -469 -207 -480 0 -7 64 -10 211 -8 l211 3 55 145 c30 80 63 171 74
202 17 48 26 59 52 67 47 15 587 13 616 -2 19 -10 37 -51 93 -214 l70 -203
259 0 c143 0 259 4 259 9 0 4 -21 55 -46 112 -50 113 -137 317 -189 444 -18
44 -40 96 -49 115 -49 108 -355 906 -408 1068 l-21 62 -209 0 -209 0 -15 -37z
m275 -717 c55 -164 101 -302 101 -307 0 -5 -99 -9 -220 -9 l-220 0 16 38 c23
52 178 466 199 530 9 29 18 52 20 50 1 -2 48 -137 104 -302z"/>
<path d="M197 5763 c-4 -3 -7 -408 -7 -900 l0 -893 545 0 c508 0 545 1 553 18
16 29 92 262 92 279 0 15 -36 15 -377 9 l-376 -7 7 603 c3 331 9 669 13 750
l6 148 -225 0 c-123 0 -228 -3 -231 -7z"/>
<path d="M1547 5763 c-4 -3 -7 -408 -7 -900 l0 -893 542 2 542 3 44 125 c25
69 47 138 50 153 l5 29 -372 -8 -371 -7 0 233 0 232 323 -3 322 -4 0 160 0
160 -325 -3 -325 -4 3 204 c2 111 5 208 7 215 3 9 31 11 102 8 54 -3 200 -7
326 -10 l227 -4 0 159 0 160 -543 0 c-299 0 -547 -3 -550 -7z"/>
<path d="M4855 4870 l0 -900 426 0 c453 0 513 5 659 52 135 44 354 174 369
220 5 15 23 33 38 39 17 6 86 98 119 159 37 68 69 155 89 240 21 91 20 386 -1
483 -25 114 -92 240 -171 323 -121 125 -239 190 -437 239 -146 36 -284 45
-711 45 l-380 0 0 -900z m640 585 c165 -7 237 -21 319 -59 120 -55 151 -80
206 -162 73 -112 90 -178 90 -355 0 -114 -4 -160 -20 -219 -24 -87 -89 -190
-153 -243 -49 -40 -150 -93 -216 -113 -51 -16 -236 -34 -348 -34 l-73 0 0 600
0 600 38 -4 c20 -3 91 -8 157 -11z"/>
<path d="M6700 5759 c0 -12 49 -147 107 -294 19 -49 44 -115 54 -145 10 -30
57 -165 104 -300 48 -135 149 -429 224 -655 l138 -410 210 -3 210 -2 142 422
c79 233 145 435 148 451 5 28 23 38 23 13 0 -8 65 -209 145 -447 80 -239 145
-435 145 -436 0 -2 101 -3 225 -3 203 0 225 2 234 18 5 9 38 105 74 212 104
311 253 740 327 940 17 47 37 103 45 125 7 22 32 92 55 155 23 63 55 151 70
195 16 44 35 98 43 120 9 22 13 43 10 47 -2 5 -98 8 -212 8 -155 0 -211 -3
-219 -12 -13 -17 -80 -234 -254 -828 -93 -319 -118 -410 -118 -434 0 -16 -6
-26 -15 -26 -9 0 -15 10 -15 26 0 14 -12 65 -26 113 -14 47 -42 138 -61 201
-65 216 -211 682 -273 870 l-28 85 -246 3 c-216 2 -246 0 -246 -13 0 -9 13
-48 29 -88 16 -39 50 -131 75 -203 52 -148 57 -205 27 -282 -56 -140 -231
-668 -231 -694 0 -10 -7 -18 -15 -18 -10 0 -15 10 -15 29 0 16 -16 85 -36 153
-20 68 -51 175 -69 238 -18 63 -54 183 -79 265 -26 83 -58 188 -72 235 -14 47
-47 150 -73 230 l-47 145 -257 3 c-186 2 -257 -1 -257 -9z"/>
<path d="M11040 5752 c0 -9 17 -41 38 -71 20 -29 51 -74 67 -100 17 -26 43
-64 59 -84 16 -21 43 -60 60 -87 17 -28 65 -101 107 -163 95 -140 210 -315
225 -342 6 -11 35 -58 64 -105 l53 -84 -7 -211 c-3 -115 -9 -283 -13 -372 l-6
-163 231 0 232 0 0 396 0 396 29 37 c16 20 56 77 89 126 87 129 213 313 247
361 17 23 37 51 45 64 39 56 129 182 179 250 31 41 66 90 78 108 44 64 49 63
-223 60 l-247 -3 -16 -30 c-9 -17 -37 -66 -63 -110 -59 -102 -229 -420 -271
-507 -30 -63 -57 -88 -57 -52 0 15 -81 174 -172 336 -24 42 -79 142 -123 222
l-80 146 -262 0 c-245 0 -263 -1 -263 -18z"/>
<path d="M668 3193 c-9 -10 -161 -443 -337 -962 -251 -736 -319 -946 -310
-957 9 -11 53 -14 206 -14 112 0 202 4 213 10 17 9 66 145 125 348 l6 22 338
0 337 0 23 -77 c55 -190 84 -274 98 -288 12 -12 50 -15 208 -15 106 0 200 3
209 6 9 3 16 13 16 21 0 21 -639 1895 -652 1910 -8 10 -65 13 -238 13 -203 0
-229 -2 -242 -17z m297 -615 c26 -90 74 -251 106 -357 33 -107 59 -199 59
-203 0 -4 -101 -8 -224 -8 l-225 0 9 28 c4 15 52 176 105 357 54 182 99 333
102 338 12 21 24 -7 68 -155z"/>
<path d="M2351 2700 c-265 -56 -402 -202 -402 -429 0 -248 160 -388 526 -460
163 -32 205 -56 205 -118 0 -80 -60 -114 -199 -114 -137 0 -258 35 -370 105
-23 15 -49 25 -56 23 -12 -5 -140 -217 -157 -260 -11 -26 27 -58 135 -111 149
-73 247 -98 417 -103 417 -14 642 147 643 462 0 110 -24 181 -86 251 -88 100
-208 154 -438 198 -142 28 -170 37 -199 66 -29 29 -28 99 3 127 66 62 261 54
431 -18 54 -22 73 -26 84 -17 27 23 154 249 148 264 -8 20 -151 87 -246 114
-60 18 -107 23 -235 26 -88 1 -180 -1 -204 -6z"/>
<path d="M3685 2694 c-102 -22 -206 -74 -266 -134 -123 -123 -151 -325 -67
-483 42 -78 104 -131 213 -183 84 -39 133 -54 338 -99 97 -21 137 -51 137
-102 0 -82 -59 -114 -208 -114 -138 1 -259 38 -384 118 -36 23 -36 22 -128
-134 -57 -97 -69 -126 -62 -140 14 -26 151 -102 243 -135 139 -49 225 -61 388
-55 161 5 230 20 331 69 84 41 153 111 193 196 31 64 32 72 32 192 0 107 -3
132 -22 172 -64 140 -219 231 -474 278 -206 38 -241 57 -243 130 -1 72 60 109
182 110 74 0 195 -26 276 -61 53 -22 72 -27 82 -18 26 21 156 250 150 264 -12
31 -188 103 -318 130 -89 19 -300 18 -393 -1z"/>
<path d="M6515 2690 c-100 -21 -213 -60 -263 -90 l-32 -20 0 -648 c0 -491 3
-651 12 -660 8 -8 65 -12 189 -12 148 0 180 3 193 16 14 14 16 76 16 534 l0
518 48 13 c30 9 103 14 205 14 129 0 159 3 167 15 16 24 12 273 -3 295 -33 44
-364 60 -532 25z"/>
<path d="M7613 2695 c-102 -28 -236 -110 -250 -152 -5 -15 -7 -80 -4 -143 7
-135 7 -135 103 -96 134 53 359 72 429 36 67 -35 92 -78 104 -181 l6 -56 -184
5 c-214 5 -309 -9 -422 -62 -96 -46 -148 -94 -187 -174 -32 -64 -33 -71 -33
-187 0 -113 2 -124 31 -185 56 -117 159 -195 319 -242 73 -21 99 -23 300 -23
166 1 243 5 315 18 131 25 211 46 238 63 l22 14 0 454 c0 418 -2 459 -20 530
-49 192 -160 311 -348 373 -69 22 -349 28 -419 8z m375 -864 c9 -1 12 -33 12
-126 l0 -125 -27 -7 c-16 -5 -84 -8 -153 -8 -142 0 -187 14 -222 69 -38 60
-11 152 56 188 29 16 143 24 236 16 47 -3 91 -7 98 -7z"/>
<path d="M9120 2703 c-158 -25 -356 -79 -397 -108 l-23 -16 0 -648 c0 -490 3
-650 12 -659 8 -8 66 -12 195 -12 170 0 183 1 193 19 6 13 10 199 10 534 l0
515 23 6 c12 4 66 10 119 13 117 7 177 -7 222 -52 58 -58 59 -67 63 -560 3
-298 8 -454 15 -462 16 -20 371 -18 387 1 9 11 11 133 8 488 -4 527 -4 526
-75 663 -50 95 -122 164 -224 214 -112 56 -192 71 -363 69 -77 0 -151 -3 -165
-5z"/>
<path d="M10643 2691 c-214 -53 -371 -204 -418 -402 -21 -92 -21 -550 0 -634
51 -196 176 -329 369 -391 66 -22 107 -28 216 -31 145 -6 234 6 341 46 66 25
179 92 193 114 8 12 -10 46 -77 146 -94 142 -103 148 -161 112 -106 -65 -281
-82 -374 -35 -39 19 -59 38 -80 72 -27 46 -27 50 -30 247 -2 110 -1 218 3 241
9 64 52 121 112 151 48 23 61 25 150 21 82 -3 109 -9 167 -35 38 -17 76 -29
84 -25 19 7 172 239 172 261 0 10 -8 25 -18 34 -32 29 -168 86 -254 107 -108
26 -291 26 -395 1z"/>
<path d="M11926 2690 c-204 -52 -340 -178 -402 -370 -25 -80 -33 -542 -10
-649 46 -221 195 -365 434 -422 116 -28 336 -23 452 10 142 41 310 139 310
180 0 16 -147 222 -168 235 -5 3 -44 -12 -87 -34 -96 -48 -189 -70 -298 -70
-153 0 -229 62 -243 199 l-7 61 401 0 c362 0 402 2 417 17 15 15 17 38 12 217
-7 271 -33 360 -139 472 -64 68 -129 109 -220 141 -63 22 -94 26 -223 29 -125
3 -163 0 -229 -16z m264 -321 c58 -12 116 -57 136 -104 7 -17 16 -63 19 -103
l8 -72 -223 0 -223 0 6 72 c10 123 61 190 156 209 54 10 65 10 121 -2z"/>
<path d="M4698 2670 c-17 -10 -18 -44 -18 -474 0 -426 2 -469 19 -539 45 -172
133 -288 275 -357 104 -51 197 -70 346 -70 177 0 340 27 495 82 105 37 95 -38
95 699 0 644 0 648 -21 659 -13 7 -81 10 -195 8 -142 -2 -177 -6 -184 -18 -6
-9 -10 -224 -10 -531 0 -483 -1 -517 -17 -524 -27 -11 -206 -19 -248 -11 -20
4 -53 23 -76 43 -67 61 -69 76 -69 572 0 257 -4 442 -10 451 -8 12 -42 15
-187 18 -112 1 -185 -2 -195 -8z"/>
<path d="M9988 593 l-38 -4 0 -285 0 -284 35 0 35 0 0 108 c0 60 2 111 4 113
3 2 24 3 48 1 42 -4 44 -6 118 -111 74 -104 76 -106 118 -109 23 -2 42 0 42 3
0 4 -34 54 -75 111 -41 57 -75 107 -75 112 0 4 18 15 40 25 57 26 85 77 85
152 -1 120 -58 166 -215 170 -47 2 -102 1 -122 -2z m196 -67 c44 -18 66 -52
66 -99 0 -87 -56 -130 -163 -125 l-62 3 -3 104 c-1 58 0 111 2 118 7 18 116
17 160 -1z"/>
<path d="M10550 573 c-42 -22 -59 -40 -84 -83 -28 -49 -31 -65 -34 -156 -5
-122 13 -196 61 -251 48 -54 97 -73 197 -73 113 0 132 6 128 38 -3 25 -3 25
-110 26 -99 1 -108 3 -134 26 -48 45 -64 94 -64 205 0 118 21 174 80 213 36
25 31 24 195 10 26 -3 30 1 33 23 3 22 -2 27 -36 37 -22 7 -71 12 -110 12 -57
0 -79 -5 -122 -27z"/>
<path d="M12015 584 c-41 -21 -63 -52 -70 -99 -8 -49 7 -90 45 -130 l29 -30
-29 -20 c-49 -33 -73 -87 -68 -156 7 -98 63 -139 190 -139 125 0 188 56 188
165 0 60 -23 99 -75 131 l-36 22 24 19 c59 46 83 127 54 183 -24 47 -73 70
-151 70 -44 0 -82 -6 -101 -16z m137 -44 c21 -6 42 -19 48 -30 26 -49 -1 -114
-59 -145 -25 -12 -31 -12 -66 9 -100 60 -81 155 35 175 3 1 22 -4 42 -9z m0
-271 c56 -29 81 -66 75 -114 -8 -60 -43 -85 -116 -85 -43 0 -65 5 -84 20 -51
40 -47 120 10 176 37 38 45 38 115 3z"/>
<path d="M12483 585 c-38 -16 -62 -50 -70 -98 -8 -51 2 -82 42 -125 l34 -38
-29 -17 c-45 -27 -74 -83 -74 -142 0 -103 64 -155 193 -155 91 0 142 24 171
80 24 46 26 110 5 149 -14 29 -63 75 -87 83 -8 3 -1 15 21 33 82 70 78 185 -8
230 -38 19 -154 19 -198 0z m175 -71 c12 -14 22 -34 22 -45 0 -33 -29 -79 -62
-99 -31 -18 -32 -18 -69 1 -66 33 -89 107 -46 146 42 39 117 38 155 -3z m-38
-244 c66 -33 89 -78 70 -135 -16 -49 -44 -65 -113 -65 -51 0 -62 4 -88 29 -48
49 -35 132 28 180 30 22 44 20 103 -9z"/>
<path d="M11060 560 l0 -30 141 0 c77 0 139 -3 137 -7 -129 -258 -198 -424
-198 -479 0 -23 3 -25 36 -22 36 3 37 4 54 70 25 95 53 163 131 318 38 74 69
145 69 158 l0 22 -185 0 -185 0 0 -30z"/>
<path d="M11507 583 c-4 -3 -7 -64 -7 -134 0 -123 1 -129 23 -144 21 -13 28
-13 71 1 90 31 166 -13 166 -97 0 -117 -82 -165 -214 -125 -47 14 -47 14 -57
-11 -5 -13 -7 -29 -4 -33 18 -29 191 -40 248 -16 93 38 134 173 86 274 -30 61
-86 87 -176 79 l-63 -5 0 79 0 79 110 0 110 0 0 30 0 30 -143 0 c-79 0 -147
-3 -150 -7z"/>
</g>
</svg>
