<?xml version="1.0" standalone="no"?>
<!DOCTYPE svg PUBLIC "-//W3C//DTD SVG 20010904//EN"
 "http://www.w3.org/TR/2001/REC-SVG-20010904/DTD/svg10.dtd">
<svg version="1.0" xmlns="http://www.w3.org/2000/svg"
 width="170.000000pt" height="170.000000pt" viewBox="0 0 170.000000 170.000000"
 preserveAspectRatio="xMidYMid meet">

<g transform="translate(0.000000,170.000000) scale(0.100000,-0.100000)"
fill="#000000" stroke="none">
<path d="M670 1230 c0 -5 4 -10 9 -10 6 0 13 5 16 10 3 6 -1 10 -9 10 -9 0
-16 -4 -16 -10z"/>
<path d="M757 1183 c-2 -5 2 -19 9 -33 l14 -25 0 33 c0 29 -13 43 -23 25z"/>
<path d="M820 1160 c0 -11 4 -20 8 -20 4 0 8 9 8 20 0 11 -4 20 -8 20 -4 0 -8
-9 -8 -20z"/>
<path d="M917 1104 c-22 -12 -35 -13 -59 -5 -26 9 -29 9 -18 -4 7 -8 8 -20 4
-27 -25 -39 21 -43 63 -6 12 11 25 18 30 15 4 -3 9 6 9 19 1 13 1 24 0 24 0
-1 -14 -8 -29 -16z"/>
<path d="M660 1092 c0 -12 75 -45 91 -40 7 2 -4 14 -25 26 -38 23 -66 28 -66
14z"/>
<path d="M769 1030 c-1 -11 -2 -28 -2 -37 -1 -10 -6 -22 -12 -26 -6 -5 -4 -7
5 -5 14 4 29 88 16 88 -3 0 -7 -9 -7 -20z"/>
<path d="M907 959 c-10 -6 -30 -8 -44 -4 -20 5 -24 3 -20 -9 4 -9 2 -18 -4
-21 -14 -10 0 -25 23 -25 28 0 76 30 81 52 6 20 -9 23 -36 7z"/>
<path d="M660 949 c0 -12 61 -39 87 -39 11 0 0 11 -26 25 -47 27 -61 31 -61
14z"/>
<path d="M770 905 c-3 -5 -5 -23 -5 -40 0 -16 -4 -33 -10 -37 -6 -5 -5 -8 3
-8 7 0 15 6 18 14 7 18 1 85 -6 71z"/>
<path d="M910 816 c-16 -10 -30 -11 -42 -5 -23 12 -30 11 -25 -3 2 -7 0 -21
-5 -30 -7 -15 -4 -18 24 -18 35 1 69 23 81 53 8 20 0 21 -33 3z"/>
<path d="M665 809 c-4 -6 -5 -11 -4 -13 18 -11 64 -26 82 -26 17 0 12 6 -22
25 -50 29 -48 28 -56 14z"/>
<path d="M770 770 c-7 -13 -5 -89 3 -81 4 4 7 26 4 47 -2 22 -5 37 -7 34z"/>
<path d="M820 709 c0 -5 5 -7 10 -4 6 3 10 8 10 11 0 2 -4 4 -10 4 -5 0 -10
-5 -10 -11z"/>
<path d="M849 666 c12 -14 11 -19 -3 -35 -16 -17 -16 -19 0 -25 11 -4 32 4 56
20 52 37 51 72 -3 44 -13 -8 -26 -7 -41 1 -21 11 -22 11 -9 -5z"/>
<path d="M660 652 c0 -9 58 -32 81 -32 8 0 -1 9 -19 20 -33 21 -62 26 -62 12z"/>
<path d="M1340 615 c0 -8 9 -15 20 -15 11 0 20 2 20 5 0 2 -9 9 -20 15 -16 9
-20 8 -20 -5z"/>
<path d="M767 598 c-2 -7 -1 -22 4 -33 6 -16 8 -14 8 13 1 33 -4 41 -12 20z"/>
<path d="M820 570 c0 -5 5 -10 11 -10 5 0 7 5 4 10 -3 6 -8 10 -11 10 -2 0 -4
-4 -4 -10z"/>
<path d="M1182 529 c-10 -15 -5 -21 34 -39 25 -12 47 -20 50 -18 2 3 -13 20
-35 39 -35 32 -39 34 -49 18z"/>
<path d="M917 524 c-22 -12 -35 -13 -58 -5 -26 9 -28 8 -20 -8 7 -12 6 -22 0
-28 -8 -8 -4 -13 11 -18 15 -5 31 0 51 14 16 12 33 20 37 17 4 -2 8 7 8 20 1
13 1 24 0 24 0 -1 -14 -8 -29 -16z"/>
<path d="M241 504 c0 -11 3 -14 6 -6 3 7 2 16 -1 19 -3 4 -6 -2 -5 -13z"/>
<path d="M665 510 c-7 -11 62 -42 84 -38 10 2 2 11 -22 26 -42 24 -53 27 -62
12z"/>
<path d="M500 488 c0 -19 -8 -32 -27 -42 -16 -8 -23 -15 -16 -16 7 0 24 10 39
23 22 20 25 27 16 43 -10 17 -11 17 -12 -8z"/>
<path d="M630 465 c0 -8 2 -15 4 -15 2 0 6 7 10 15 3 8 1 15 -4 15 -6 0 -10
-7 -10 -15z"/>
<path d="M765 462 c-10 -7 -13 -16 -23 -60 -4 -21 -1 -23 24 -20 27 3 29 6 26
38 -4 39 -12 53 -27 42z"/>
<path d="M987 463 c-5 -7 -5 -13 -2 -13 3 0 -1 -10 -9 -22 -22 -31 -20 -35 14
-30 31 4 36 11 21 28 -5 5 -11 18 -13 29 -2 14 -6 16 -11 8z"/>
<path d="M816 429 c-9 -45 -8 -49 9 -49 12 0 15 10 13 40 -2 48 -13 52 -22 9z"/>
<path d="M881 403 c-1 -24 4 -43 9 -43 12 0 12 24 0 60 -7 21 -8 19 -9 -17z"/>
</g>
</svg>
